<?xml version="1.0" encoding="UTF-8"?>
<svg xmlns="http://www.w3.org/2000/svg" xmlns:xlink="http://www.w3.org/1999/xlink" viewBox="0 0 50 50" version="1.1" fill="#000000"><g id="surface1" fill="#000000"><path style=" " d="M 24.984375 0.984375 C 24.433594 0.996094 23.992188 1.449219 24 2 L 24 45.253906 L 15.691406 37.28125 C 15.5 37.089844 15.238281 36.984375 14.96875 36.988281 C 14.5625 37 14.199219 37.253906 14.054688 37.632813 C 13.910156 38.011719 14.007813 38.441406 14.308594 38.71875 L 25 48.984375 L 35.691406 38.71875 C 35.953125 38.472656 36.0625 38.105469 35.976563 37.757813 C 35.890625 37.410156 35.625 37.132813 35.28125 37.035156 C 34.933594 36.933594 34.5625 37.027344 34.308594 37.28125 L 26 45.253906 L 26 2 C 26.003906 1.730469 25.898438 1.46875 25.707031 1.277344 C 25.515625 1.085938 25.253906 0.980469 24.984375 0.984375 Z " fill="#000000"/></g></svg>
