<svg width="190" height="267" viewBox="0 0 190 267" fill="none" xmlns="http://www.w3.org/2000/svg">
<path d="M159.288 231.181C155.952 236.233 152.384 241.13 148.582 245.872C147.574 247.193 146.177 248.204 144.703 248.904C105.291 266.937 60.293 271.057 17.7777 259.786C16.226 259.397 14.9071 258.309 14.2089 256.832C13.5882 255.589 13.0451 254.345 12.5021 253.023C11.8038 251.391 13.2779 249.603 15.0623 249.992C62.8532 260.563 113.127 252.091 154.711 226.517C157.814 224.573 161.306 228.149 159.288 231.181Z" fill="#BBE6E4"/>
<path d="M189.934 140.778C189.546 146.452 188.847 152.049 187.916 157.646C187.529 159.9 186.598 161.999 185.279 163.709C143.384 217.733 74.8009 245.172 6.83847 234.368C5.98506 234.212 5.28682 233.59 5.05407 232.813C4.74374 231.725 4.43341 230.714 4.12308 229.626C3.65758 228.149 4.8989 226.672 6.45056 226.827C76.6629 233.279 145.867 199.543 183.727 138.601C185.589 135.648 190.166 137.28 189.934 140.778Z" fill="#FF66B3"/>
<path d="M1.95077 210.037C56.8793 203.586 104.593 173.581 134.695 130.362C137.798 125.931 134.462 119.946 129.109 120.257C126.471 120.412 123.523 120.49 120.342 120.49C115.532 120.49 112.429 115.515 114.601 111.24C126.859 86.1321 133.764 57.993 133.764 28.2215C133.764 22.4693 133.298 14.6183 132.445 6.92284C131.824 0.859722 139.272 -2.40503 143.306 2.10344C153.237 13.3746 160.995 24.8013 166.969 35.6838C167.357 36.3057 167.667 36.9275 167.978 37.6271C173.331 47.6546 177.753 57.9152 181.167 68.3314C184.736 79.2916 187.296 90.4851 188.77 101.679C189.158 104.555 187.451 107.431 184.736 108.441C179.77 110.307 174.65 112.017 169.452 113.494C166.349 114.349 163.711 116.448 162.159 119.324C130.971 176.068 71.5425 215.09 2.88176 217.266C1.79561 217.266 0.787032 216.567 0.631867 215.479C0.399119 214.546 0.243953 213.613 0.0887878 212.68C-0.299126 211.359 0.631867 210.193 1.95077 210.037Z" fill="#BBE6E4"/>
</svg>
