<svg width="296" height="61" viewBox="0 0 296 61" fill="none" xmlns="http://www.w3.org/2000/svg">
<path d="M36.0604 52.3358C35.3052 53.4796 34.4973 54.5882 33.6367 55.6617C33.4083 55.9608 33.0922 56.1896 32.7585 56.348C23.8362 60.4306 13.6494 61.3632 4.02455 58.8116C3.67328 58.7236 3.3747 58.4772 3.21663 58.1429C3.07612 57.8613 2.95317 57.5798 2.83023 57.2806C2.67216 56.9111 3.00586 56.5063 3.40982 56.5943C14.229 58.9876 25.6101 57.0695 35.0242 51.2799C35.7267 50.84 36.5171 51.6495 36.0604 52.3358Z" fill="#235B8B"/>
<path d="M42.9981 31.87C42.9103 33.1546 42.7522 34.4216 42.5415 35.6886C42.4536 36.1989 42.2429 36.6741 41.9443 37.0612C32.46 49.2914 16.9338 55.5033 1.54817 53.0572C1.35497 53.022 1.1969 52.8813 1.14421 52.7053C1.07395 52.4589 1.0037 52.2302 0.933443 51.9838C0.828062 51.6494 1.10908 51.3151 1.46035 51.3503C17.3553 52.8109 33.022 45.1736 41.593 31.3772C42.0145 30.7085 43.0508 31.0781 42.9981 31.87Z" fill="#DA395C"/>
<path d="M0.441625 47.5493C12.8766 46.0887 23.6782 39.2961 30.4928 29.5119C31.1954 28.5089 30.4401 27.1539 29.2283 27.2242C28.6311 27.2594 27.9637 27.277 27.2436 27.277C26.1546 27.277 25.4521 26.1508 25.9439 25.1829C28.7189 19.499 30.2821 13.1287 30.2821 6.38892C30.2821 5.08671 30.1767 3.30937 29.9835 1.56723C29.843 0.194628 31.5291 -0.544463 32.4424 0.476187C34.6905 3.02781 36.4469 5.61463 37.7993 8.07827C37.8871 8.21905 37.9573 8.35983 38.0276 8.5182C39.2395 10.7883 40.2406 13.1111 41.0134 15.4692C41.8213 17.9504 42.4009 20.4844 42.7346 23.0185C42.8224 23.6696 42.436 24.3207 41.8213 24.5494C40.6972 24.9718 39.5381 25.3589 38.3613 25.6933C37.6588 25.8868 37.0616 26.362 36.7103 27.0131C29.6498 39.8592 16.1961 48.6931 0.652387 49.1858C0.406498 49.1858 0.178172 49.0274 0.143045 48.7811C0.0903543 48.5699 0.0552273 48.3587 0.0201002 48.1476C-0.0677175 47.8484 0.143045 47.5844 0.441625 47.5493Z" fill="#235B8B"/>
<path d="M76.512 34.528C76.512 37.5147 75.6693 39.904 73.984 41.696C72.32 43.4667 70.08 44.352 67.264 44.352C64.4267 44.352 62.176 43.4667 60.512 41.696C58.848 39.9253 58.016 37.536 58.016 34.528V21.6H60.48V34.528C60.48 36.8107 61.0987 38.6453 62.336 40.032C63.5733 41.3973 65.216 42.08 67.264 42.08C69.312 42.08 70.9547 41.3973 72.192 40.032C73.4293 38.6453 74.048 36.8107 74.048 34.528V21.6H76.512V34.528ZM80.5473 50.56V27.968H82.8833V29.696C83.5659 29.0347 84.3446 28.544 85.2193 28.224C86.1153 27.8827 87.0646 27.712 88.0673 27.712C89.1979 27.712 90.2539 27.9253 91.2353 28.352C92.2166 28.7787 93.0699 29.3653 93.7953 30.112C94.5206 30.8373 95.0859 31.712 95.4913 32.736C95.9179 33.7387 96.1313 34.816 96.1313 35.968C96.1313 37.12 95.9179 38.208 95.4913 39.232C95.0859 40.256 94.5206 41.1413 93.7953 41.888C93.0699 42.6133 92.2059 43.1893 91.2033 43.616C90.2219 44.0427 89.1659 44.256 88.0353 44.256C87.0966 44.256 86.1899 44.096 85.3153 43.776C84.4406 43.456 83.6406 42.9973 82.9153 42.4V50.56H80.5473ZM87.8433 29.792C86.8406 29.792 85.9019 29.9947 85.0273 30.4C84.1739 30.784 83.4699 31.328 82.9153 32.032V39.968C83.4699 40.6507 84.1846 41.1947 85.0593 41.6C85.9339 41.984 86.8619 42.176 87.8433 42.176C89.5286 42.176 90.9366 41.5893 92.0673 40.416C93.2193 39.2213 93.7953 37.7493 93.7953 36C93.7953 35.1253 93.6353 34.3147 93.3153 33.568C93.0166 32.8 92.6006 32.1387 92.0673 31.584C91.5339 31.0293 90.9046 30.592 90.1793 30.272C89.4539 29.952 88.6753 29.792 87.8433 29.792ZM97.7903 41.792L99.2303 40.256C99.9556 40.9387 100.766 41.472 101.662 41.856C102.58 42.2187 103.508 42.4 104.446 42.4C105.726 42.4 106.772 42.1333 107.582 41.6C108.393 41.0667 108.798 40.3733 108.798 39.52C108.798 38.8373 108.553 38.304 108.062 37.92C107.593 37.5147 106.846 37.2373 105.822 37.088L103.038 36.704C101.438 36.4693 100.244 36 99.4543 35.296C98.6863 34.5707 98.3023 33.6 98.3023 32.384C98.3023 31.04 98.8676 29.9307 99.9983 29.056C101.129 28.16 102.569 27.712 104.318 27.712C105.47 27.712 106.558 27.8827 107.582 28.224C108.628 28.5653 109.641 29.0987 110.622 29.824L109.374 31.424C108.478 30.8267 107.604 30.3787 106.75 30.08C105.918 29.7813 105.065 29.632 104.19 29.632C103.102 29.632 102.206 29.8773 101.502 30.368C100.82 30.8587 100.478 31.4987 100.478 32.288C100.478 32.9707 100.713 33.504 101.182 33.888C101.652 34.2507 102.409 34.5067 103.454 34.656L106.238 35.04C107.838 35.2533 109.033 35.7333 109.822 36.48C110.633 37.2053 111.038 38.176 111.038 39.392C111.038 40.0747 110.868 40.7253 110.526 41.344C110.206 41.9413 109.748 42.464 109.15 42.912C108.574 43.3387 107.892 43.68 107.102 43.936C106.313 44.1707 105.46 44.288 104.542 44.288C103.22 44.288 101.972 44.0747 100.798 43.648C99.6463 43.2 98.6436 42.5813 97.7903 41.792ZM114.887 24.896C114.461 24.896 114.087 24.736 113.767 24.416C113.447 24.096 113.287 23.7227 113.287 23.296C113.287 22.848 113.447 22.4747 113.767 22.176C114.087 21.856 114.461 21.696 114.887 21.696C115.335 21.696 115.709 21.856 116.007 22.176C116.327 22.4747 116.487 22.848 116.487 23.296C116.487 23.7227 116.327 24.096 116.007 24.416C115.709 24.736 115.335 24.896 114.887 24.896ZM116.071 27.968V44H113.703V27.968H116.071ZM132.622 44V42.304C131.939 42.944 131.15 43.4347 130.254 43.776C129.379 44.096 128.44 44.256 127.438 44.256C126.307 44.256 125.251 44.0427 124.27 43.616C123.288 43.1893 122.435 42.6133 121.71 41.888C120.984 41.1413 120.408 40.256 119.982 39.232C119.576 38.208 119.374 37.12 119.374 35.968C119.374 34.816 119.576 33.7387 119.982 32.736C120.408 31.712 120.984 30.8373 121.71 30.112C122.435 29.3653 123.288 28.7787 124.27 28.352C125.272 27.9253 126.339 27.712 127.47 27.712C128.387 27.712 129.283 27.872 130.158 28.192C131.054 28.4907 131.864 28.9387 132.59 29.536V21.6L134.958 21.056V44H132.622ZM121.71 35.936C121.71 36.8107 121.859 37.632 122.158 38.4C122.478 39.168 122.904 39.8293 123.438 40.384C123.971 40.9387 124.6 41.376 125.326 41.696C126.051 42.016 126.83 42.176 127.662 42.176C128.664 42.176 129.592 41.984 130.446 41.6C131.32 41.1947 132.035 40.64 132.59 39.936V32C132.035 31.3173 131.32 30.784 130.446 30.4C129.571 29.9947 128.643 29.792 127.662 29.792C125.998 29.792 124.59 30.3787 123.438 31.552C122.286 32.7253 121.71 34.1867 121.71 35.936ZM152.489 42.304C151.593 42.9653 150.654 43.4667 149.673 43.808C148.713 44.128 147.657 44.288 146.505 44.288C145.353 44.288 144.265 44.0747 143.241 43.648C142.238 43.2213 141.363 42.6347 140.617 41.888C139.891 41.1413 139.315 40.2667 138.889 39.264C138.462 38.24 138.249 37.1413 138.249 35.968C138.249 34.816 138.451 33.7387 138.857 32.736C139.283 31.7333 139.849 30.8587 140.553 30.112C141.257 29.3653 142.089 28.7787 143.049 28.352C144.03 27.9253 145.065 27.712 146.153 27.712C147.219 27.712 148.211 27.9253 149.129 28.352C150.067 28.7787 150.867 29.3653 151.529 30.112C152.211 30.8587 152.745 31.7333 153.129 32.736C153.534 33.7387 153.737 34.816 153.737 35.968V36.704H140.585C140.755 38.2827 141.406 39.5947 142.537 40.64C143.667 41.6853 145.022 42.208 146.601 42.208C147.433 42.208 148.243 42.08 149.033 41.824C149.822 41.568 150.483 41.2053 151.017 40.736L152.489 42.304ZM146.089 29.792C144.702 29.792 143.497 30.2613 142.473 31.2C141.47 32.1387 140.862 33.344 140.649 34.816H151.369C151.155 33.408 150.547 32.224 149.545 31.264C148.563 30.2827 147.411 29.792 146.089 29.792ZM157.495 44V21.6H173.527V23.776H159.959V31.776H168.855V33.92H159.959V44H157.495ZM177.044 24.896C176.617 24.896 176.244 24.736 175.924 24.416C175.604 24.096 175.444 23.7227 175.444 23.296C175.444 22.848 175.604 22.4747 175.924 22.176C176.244 21.856 176.617 21.696 177.044 21.696C177.492 21.696 177.865 21.856 178.164 22.176C178.484 22.4747 178.644 22.848 178.644 23.296C178.644 23.7227 178.484 24.096 178.164 24.416C177.865 24.736 177.492 24.896 177.044 24.896ZM178.228 27.968V44H175.86V27.968H178.228ZM182.266 44V27.968H184.634V29.856C185.253 29.1307 185.989 28.5867 186.842 28.224C187.695 27.84 188.645 27.648 189.69 27.648C191.503 27.648 192.986 28.224 194.138 29.376C195.29 30.528 195.866 32.0213 195.866 33.856V44H193.53V34.336C193.53 32.928 193.125 31.808 192.314 30.976C191.503 30.144 190.415 29.728 189.05 29.728C188.09 29.728 187.226 29.9413 186.458 30.368C185.711 30.7947 185.103 31.4027 184.634 32.192V44H182.266ZM204.885 44.288C203.135 44.288 201.706 43.84 200.597 42.944C199.509 42.048 198.965 40.8853 198.965 39.456C198.965 37.9627 199.541 36.7787 200.693 35.904C201.845 35.008 203.402 34.56 205.365 34.56C206.218 34.56 207.039 34.656 207.829 34.848C208.639 35.04 209.386 35.3067 210.069 35.648V33.536C210.069 32.256 209.706 31.296 208.981 30.656C208.255 29.9947 207.199 29.664 205.812 29.664C205.023 29.664 204.223 29.7813 203.413 30.016C202.623 30.2293 201.749 30.5813 200.789 31.072L199.893 29.248C201.045 28.6933 202.111 28.288 203.093 28.032C204.074 27.776 205.055 27.648 206.036 27.648C208.063 27.648 209.621 28.128 210.709 29.088C211.818 30.048 212.373 31.424 212.373 33.216V44H210.069V42.432C209.343 43.0507 208.543 43.52 207.669 43.84C206.815 44.1387 205.887 44.288 204.885 44.288ZM201.237 39.392C201.237 40.288 201.61 41.024 202.357 41.6C203.125 42.1547 204.106 42.432 205.301 42.432C206.261 42.432 207.135 42.2827 207.925 41.984C208.714 41.6853 209.429 41.216 210.069 40.576V37.568C209.407 37.12 208.693 36.8 207.925 36.608C207.178 36.3947 206.346 36.288 205.429 36.288C204.149 36.288 203.125 36.576 202.357 37.152C201.61 37.7067 201.237 38.4533 201.237 39.392ZM216.329 44V27.968H218.697V29.856C219.315 29.1307 220.051 28.5867 220.905 28.224C221.758 27.84 222.707 27.648 223.753 27.648C225.566 27.648 227.049 28.224 228.201 29.376C229.353 30.528 229.929 32.0213 229.929 33.856V44H227.593V34.336C227.593 32.928 227.187 31.808 226.377 30.976C225.566 30.144 224.478 29.728 223.113 29.728C222.153 29.728 221.289 29.9413 220.521 30.368C219.774 30.7947 219.166 31.4027 218.697 32.192V44H216.329ZM241.379 42.144C242.232 42.144 243.054 41.9733 243.843 41.632C244.632 41.2907 245.368 40.7893 246.051 40.128L247.523 41.728C246.67 42.5387 245.71 43.168 244.643 43.616C243.576 44.064 242.467 44.288 241.315 44.288C240.184 44.288 239.118 44.0747 238.115 43.648C237.112 43.2213 236.248 42.6347 235.523 41.888C234.798 41.1413 234.222 40.256 233.795 39.232C233.368 38.208 233.155 37.12 233.155 35.968C233.155 34.816 233.368 33.7387 233.795 32.736C234.222 31.712 234.798 30.8267 235.523 30.08C236.248 29.3333 237.112 28.7467 238.115 28.32C239.118 27.872 240.184 27.648 241.315 27.648C242.467 27.648 243.587 27.872 244.675 28.32C245.784 28.768 246.755 29.3867 247.587 30.176L246.083 31.904C245.443 31.2427 244.707 30.7307 243.875 30.368C243.043 30.0053 242.2 29.824 241.347 29.824C240.536 29.824 239.768 29.984 239.043 30.304C238.318 30.624 237.688 31.0613 237.155 31.616C236.643 32.1707 236.238 32.8213 235.939 33.568C235.64 34.3147 235.491 35.1147 235.491 35.968C235.491 36.8427 235.64 37.664 235.939 38.432C236.259 39.1787 236.675 39.8293 237.187 40.384C237.72 40.9173 238.35 41.344 239.075 41.664C239.8 41.984 240.568 42.144 241.379 42.144ZM263.176 42.304C262.28 42.9653 261.342 43.4667 260.36 43.808C259.4 44.128 258.344 44.288 257.192 44.288C256.04 44.288 254.952 44.0747 253.928 43.648C252.926 43.2213 252.051 42.6347 251.304 41.888C250.579 41.1413 250.003 40.2667 249.576 39.264C249.15 38.24 248.936 37.1413 248.936 35.968C248.936 34.816 249.139 33.7387 249.544 32.736C249.971 31.7333 250.536 30.8587 251.24 30.112C251.944 29.3653 252.776 28.7787 253.736 28.352C254.718 27.9253 255.752 27.712 256.84 27.712C257.907 27.712 258.899 27.9253 259.816 28.352C260.755 28.7787 261.555 29.3653 262.216 30.112C262.899 30.8587 263.432 31.7333 263.816 32.736C264.222 33.7387 264.424 34.816 264.424 35.968V36.704H251.272C251.443 38.2827 252.094 39.5947 253.224 40.64C254.355 41.6853 255.71 42.208 257.288 42.208C258.12 42.208 258.931 42.08 259.72 41.824C260.51 41.568 261.171 41.2053 261.704 40.736L263.176 42.304ZM256.776 29.792C255.39 29.792 254.184 30.2613 253.16 31.2C252.158 32.1387 251.55 33.344 251.336 34.816H262.056C261.843 33.408 261.235 32.224 260.232 31.264C259.251 30.2827 258.099 29.792 256.776 29.792ZM267.918 40.928C268.366 40.928 268.75 41.088 269.07 41.408C269.39 41.728 269.55 42.112 269.55 42.56C269.55 43.008 269.39 43.392 269.07 43.712C268.75 44.032 268.366 44.192 267.918 44.192C267.47 44.192 267.086 44.032 266.766 43.712C266.446 43.392 266.286 43.008 266.286 42.56C266.286 42.112 266.446 41.728 266.766 41.408C267.086 41.088 267.47 40.928 267.918 40.928Z" fill="#235B8B"/>
<path d="M274.294 24.896C273.867 24.896 273.494 24.736 273.174 24.416C272.854 24.096 272.694 23.7227 272.694 23.296C272.694 22.848 272.854 22.4747 273.174 22.176C273.494 21.856 273.867 21.696 274.294 21.696C274.742 21.696 275.115 21.856 275.414 22.176C275.734 22.4747 275.894 22.848 275.894 23.296C275.894 23.7227 275.734 24.096 275.414 24.416C275.115 24.736 274.742 24.896 274.294 24.896ZM275.478 27.968V44H273.11V27.968H275.478ZM278.78 35.968C278.78 34.816 278.993 33.728 279.42 32.704C279.847 31.68 280.423 30.7947 281.148 30.048C281.895 29.3013 282.769 28.7147 283.772 28.288C284.775 27.8613 285.841 27.648 286.972 27.648C288.103 27.648 289.159 27.8613 290.14 28.288C291.143 28.7147 292.007 29.3013 292.732 30.048C293.479 30.7947 294.065 31.68 294.492 32.704C294.919 33.728 295.132 34.816 295.132 35.968C295.132 37.1413 294.919 38.24 294.492 39.264C294.065 40.288 293.479 41.1733 292.732 41.92C292.007 42.6667 291.143 43.2533 290.14 43.68C289.159 44.1067 288.103 44.32 286.972 44.32C285.841 44.32 284.775 44.1067 283.772 43.68C282.769 43.2533 281.895 42.6667 281.148 41.92C280.423 41.1733 279.847 40.288 279.42 39.264C278.993 38.24 278.78 37.1413 278.78 35.968ZM286.972 42.208C287.783 42.208 288.54 42.048 289.244 41.728C289.969 41.408 290.588 40.9707 291.1 40.416C291.633 39.84 292.049 39.1787 292.348 38.432C292.647 37.664 292.796 36.8427 292.796 35.968C292.796 35.0933 292.647 34.2827 292.348 33.536C292.049 32.768 291.633 32.1067 291.1 31.552C290.588 30.9973 289.969 30.56 289.244 30.24C288.54 29.92 287.783 29.76 286.972 29.76C286.161 29.76 285.393 29.92 284.668 30.24C283.964 30.56 283.345 30.9973 282.812 31.552C282.3 32.1067 281.884 32.768 281.564 33.536C281.265 34.2827 281.116 35.0933 281.116 35.968C281.116 36.8427 281.265 37.664 281.564 38.432C281.863 39.1787 282.268 39.84 282.78 40.416C283.313 40.9707 283.943 41.408 284.668 41.728C285.393 42.048 286.161 42.208 286.972 42.208Z" fill="#DA395C"/>
</svg>
